<svg width="30" height="14" viewBox="0 0 30 14" fill="none" xmlns="http://www.w3.org/2000/svg">
<circle cx="7" cy="7" r="6.5" fill="#B3E4FC" stroke="white"/>
<path d="M7.53496 2.73548L7.53495 2.7355C7.37514 3.1839 7.16044 3.74179 6.94432 4.16422M7.53496 2.73548L6.49919 3.93648M7.53496 2.73548C7.57174 2.63225 7.66733 2.54438 7.78568 2.51215M7.53496 2.73548L7.78568 2.51215M6.94432 4.16422L6.49919 3.93648M6.94432 4.16422C6.94432 4.16422 6.94432 4.16422 6.94432 4.16422L6.49919 3.93648M6.94432 4.16422C6.34063 5.34416 5.95443 6.08637 4.91081 6.98833C4.72547 7.14852 4.50431 7.2635 4.28774 7.34688M6.49919 3.93648C5.8995 5.10863 5.54941 5.77555 4.58387 6.61004C4.45576 6.72076 4.29065 6.80998 4.10809 6.88027M4.28774 7.34688C4.28776 7.34688 4.28778 7.34687 4.2878 7.34686L4.10809 6.88027M4.28774 7.34688C3.76185 7.54946 3.42828 8.01353 3.51509 8.4364L3.71489 9.40966C3.78072 9.73033 4.02939 9.99635 4.36858 10.0865L4.36861 10.0865L7.5377 10.9285L7.4093 11.4117L7.53771 10.9285C8.70923 11.2398 9.88208 10.5033 10.0936 9.37017L10.4806 7.29613C10.6098 6.60383 10.064 5.93786 9.3017 5.93786H8.80169H8.19035L8.31163 5.33867L8.31736 5.31034L4.24021 10.5697C3.72319 10.4324 3.3302 10.0221 3.22511 9.5102L3.02531 8.53694C2.86813 7.77133 3.46906 7.1264 4.10809 6.88027M4.28774 7.34688L4.10809 6.88027M7.78568 2.51215C7.89253 2.48306 7.99598 2.50363 8.08249 2.59194L7.78568 2.51215ZM8.4468 4.48262C8.41241 4.80084 8.36074 5.09493 8.31746 5.30987L8.08251 2.59196C8.17032 2.68163 8.23686 2.7576 8.27307 2.81048C8.38159 2.96909 8.44747 3.21479 8.47275 3.52273L8.47275 3.52277C8.49766 3.82575 8.48131 4.16304 8.4468 4.48262ZM9.3017 5.48772C9.30493 5.47151 9.30821 5.45489 9.31151 5.43789L8.80169 5.43786L9.29175 5.53706L9.29758 5.50826L9.29767 5.5078C9.29901 5.50118 9.30035 5.49448 9.3017 5.48772Z" fill="#F8F8F8" stroke="#53D0FF"/>
<circle cx="15" cy="7" r="6" fill="#C7E7BF"/>
<path d="M17.8267 8.11078L17.6792 7.0723C17.6082 6.65265 17.5644 6.06008 17.4153 5.08981C17.0718 4.8378 16.6583 5.31901 16.5538 5.73337L16.1715 3.24444C16.0944 2.74258 15.1807 2.84485 15.2756 3.46309L15.5655 5.41833L15.2142 3.06301C15.1312 2.52269 14.2233 2.46945 14.3719 3.43695C14.2979 2.95459 13.3881 2.96158 13.4996 3.68762L13.6072 4.44198L13.6213 4.55426L13.5906 4.31844C13.5238 3.88391 12.7474 3.98824 12.8335 4.54862L12.9835 5.44183" fill="#F8F8F8"/>
<path d="M13.1595 5.78522C12.7161 5.34184 13.394 4.71737 13.7539 5.07727L16.019 7.34244L15.5388 6.86223C15.3776 6.46537 15.4265 5.83119 15.8535 5.83119C16.5494 6.52702 17.0304 7.07193 17.3366 7.36898C18.2014 8.23378 18.2014 9.63589 17.3366 10.5007C16.4718 11.3655 15.0885 11.3698 14.2237 10.5051L11.8294 8.11079C11.4275 7.70891 11.9932 7.16419 12.3048 7.47582L13.6742 8.87068L12.4833 7.65764L11.8572 7.01989C11.3365 6.49921 12.0677 5.95407 12.4136 6.3C11.7198 5.60615 12.4851 5.11082 12.8726 5.4983L14.7324 7.35815" fill="#F8F8F8"/>
<path d="M13.1595 5.78519C12.7161 5.34181 13.394 4.71734 13.7539 5.07724L16.019 7.34241L15.5388 6.8622C15.3776 6.46534 15.4265 5.83116 15.8535 5.83116C16.5494 6.52699 17.0304 7.0719 17.3366 7.36895C18.2014 8.23374 18.2014 9.63586 17.3366 10.5007C16.4718 11.3655 15.0885 11.3698 14.2237 10.505L11.8294 8.11076C11.4275 7.70888 11.9932 7.16416 12.3048 7.47579L13.6742 8.87065L12.4833 7.65761L11.8572 7.01986C11.3365 6.49918 12.0677 5.95404 12.4136 6.29997C11.7198 5.60612 12.4851 5.11079 12.8726 5.49827L14.7324 7.35812" stroke="#72CF6B" stroke-width="0.5" stroke-miterlimit="10" stroke-linecap="round" stroke-linejoin="round"/>
<path d="M12.8278 4.54742L12.8668 4.80154" stroke="#72CF6B" stroke-width="0.5" stroke-miterlimit="10" stroke-linecap="round" stroke-linejoin="round"/>
<path d="M12.14 3.79309L11.9528 2.91995" stroke="#72CF6B" stroke-width="0.5" stroke-miterlimit="10" stroke-linecap="round" stroke-linejoin="round"/>
<path d="M11.737 4.57013L10.9156 4.92028" stroke="#72CF6B" stroke-width="0.5" stroke-miterlimit="10" stroke-linecap="round" stroke-linejoin="round"/>
<path d="M11.8962 4.15559L11.2797 3.83591" stroke="#72CF6B" stroke-width="0.5" stroke-miterlimit="10" stroke-linecap="round" stroke-linejoin="round"/>
<path d="M17.5739 4.01351L17.5375 3.12128" stroke="#72CF6B" stroke-width="0.5" stroke-miterlimit="10" stroke-linecap="round" stroke-linejoin="round"/>
<path d="M18.1577 4.66562L19.0406 4.80001" stroke="#72CF6B" stroke-width="0.5" stroke-miterlimit="10" stroke-linecap="round" stroke-linejoin="round"/>
<path d="M17.9003 4.30383L18.4177 3.84061" stroke="#72CF6B" stroke-width="0.5" stroke-miterlimit="10" stroke-linecap="round" stroke-linejoin="round"/>
<path d="M14.1552 8.0754L12.3382 6.22461" stroke="#72CF6B" stroke-width="0.5" stroke-miterlimit="10" stroke-linecap="round" stroke-linejoin="round"/>
<path d="M14.7324 7.35814L12.8726 5.49829" stroke="#72CF6B" stroke-width="0.5" stroke-miterlimit="10" stroke-linecap="round" stroke-linejoin="round"/>
<path d="M11.8294 8.11076C11.4275 7.70888 11.9932 7.16416 12.3048 7.47578L13.6742 8.87065" stroke="#72CF6B" stroke-width="0.5" stroke-miterlimit="10" stroke-linecap="round" stroke-linejoin="round"/>
<path d="M11.8572 7.01986C11.3365 6.49918 12.0677 5.95404 12.4136 6.29997" stroke="#72CF6B" stroke-width="0.5" stroke-miterlimit="10" stroke-linecap="round" stroke-linejoin="round"/>
<path d="M12.8726 5.49828C12.4851 5.11078 11.7197 5.60612 12.4136 6.29998" stroke="#72CF6B" stroke-width="0.5" stroke-miterlimit="10" stroke-linecap="round" stroke-linejoin="round"/>
<path d="M17.3366 7.36899C17.0303 7.07192 16.5494 6.52702 15.8535 5.8312C15.4265 5.8312 15.3775 6.46538 15.5388 6.86224L16.019 7.34245L13.7539 5.07728C13.394 4.71736 12.7161 5.34185 13.1595 5.78522" stroke="#72CF6B" stroke-width="0.5" stroke-miterlimit="10" stroke-linecap="round" stroke-linejoin="round"/>
<path d="M11.8572 7.01987L12.4833 7.65763" stroke="#72CF6B" stroke-width="0.5" stroke-miterlimit="10" stroke-linecap="round" stroke-linejoin="round"/>
<path d="M17.3366 7.36899C18.2014 8.23378 18.2014 9.63589 17.3366 10.5007C16.4718 11.3655 15.0884 11.3698 14.2236 10.5051" stroke="#72CF6B" stroke-width="0.5" stroke-miterlimit="10" stroke-linecap="round" stroke-linejoin="round"/>
<path d="M11.8294 8.11078L14.2236 10.505" stroke="#72CF6B" stroke-width="0.5" stroke-miterlimit="10" stroke-linecap="round" stroke-linejoin="round"/>
<path d="M14.6371 5.29253L14.3538 3.32767" stroke="#72CF6B" stroke-width="0.5" stroke-miterlimit="10" stroke-linecap="round" stroke-linejoin="round"/>
<path d="M15.5665 5.41925L15.2143 3.05817" stroke="#72CF6B" stroke-width="0.5" stroke-miterlimit="10" stroke-linecap="round" stroke-linejoin="round"/>
<path d="M12.8278 4.54742C12.7415 3.98567 13.5198 3.88107 13.5867 4.31667L13.6175 4.55306" stroke="#72CF6B" stroke-width="0.5" stroke-miterlimit="10" stroke-linecap="round" stroke-linejoin="round"/>
<path d="M13.4955 3.68431C13.3837 2.95649 14.2957 2.94949 14.37 3.43303" stroke="#72CF6B" stroke-width="0.5" stroke-miterlimit="10" stroke-linecap="round" stroke-linejoin="round"/>
<path d="M15.2143 3.05816C15.1311 2.5165 14.221 2.46314 14.37 3.43303" stroke="#72CF6B" stroke-width="0.5" stroke-miterlimit="10" stroke-linecap="round" stroke-linejoin="round"/>
<path d="M17.6854 7.07729C17.6142 6.65661 17.5702 6.06258 17.4208 5.08994C17.0765 4.83732 16.6619 5.31969 16.5572 5.73507L16.1739 3.24004C16.0967 2.73694 15.1807 2.83947 15.2759 3.45922" stroke="#72CF6B" stroke-width="0.5" stroke-miterlimit="10" stroke-linecap="round" stroke-linejoin="round"/>
<path d="M13.4955 3.6843L13.6034 4.44052" stroke="#72CF6B" stroke-width="0.5" stroke-miterlimit="10" stroke-linecap="round" stroke-linejoin="round"/>
<path d="M12.8278 4.54742L12.8668 4.80154" stroke="#72CF6B" stroke-width="0.5" stroke-miterlimit="10" stroke-linecap="round" stroke-linejoin="round"/>
<path d="M12.14 3.79309L11.9528 2.91995" stroke="#72CF6B" stroke-width="0.5" stroke-miterlimit="10" stroke-linecap="round" stroke-linejoin="round"/>
<path d="M11.737 4.57013L10.9156 4.92028" stroke="#72CF6B" stroke-width="0.5" stroke-miterlimit="10" stroke-linecap="round" stroke-linejoin="round"/>
<path d="M11.8962 4.15559L11.2797 3.83591" stroke="#72CF6B" stroke-width="0.5" stroke-miterlimit="10" stroke-linecap="round" stroke-linejoin="round"/>
<path d="M17.5739 4.01351L17.5375 3.12128" stroke="#72CF6B" stroke-width="0.5" stroke-miterlimit="10" stroke-linecap="round" stroke-linejoin="round"/>
<path d="M18.1577 4.66562L19.0406 4.80001" stroke="#72CF6B" stroke-width="0.5" stroke-miterlimit="10" stroke-linecap="round" stroke-linejoin="round"/>
<path d="M17.9003 4.30383L18.4177 3.84061" stroke="#72CF6B" stroke-width="0.5" stroke-miterlimit="10" stroke-linecap="round" stroke-linejoin="round"/>
<circle cx="23" cy="7" r="6" fill="#FFE599"/>
<circle cx="23" cy="7" r="4" fill="#F8F8F8"/>
<path d="M23 3C20.788 3 19 4.788 19 7C19 9.212 20.788 11 23 11C24.0609 11 25.0783 10.5786 25.8284 9.82843C26.5786 9.07828 27 8.06087 27 7C27 4.788 25.2 3 23 3ZM23 10.2C22.1513 10.2 21.3374 9.86286 20.7373 9.26274C20.1371 8.66263 19.8 7.84869 19.8 7C19.8 6.15131 20.1371 5.33737 20.7373 4.73726C21.3374 4.13714 22.1513 3.8 23 3.8C23.8487 3.8 24.6626 4.13714 25.2627 4.73726C25.8629 5.33737 26.2 6.15131 26.2 7C26.2 7.84869 25.8629 8.66263 25.2627 9.26274C24.6626 9.86286 23.8487 10.2 23 10.2ZM23 9.2C23.932 9.2 24.724 8.616 25.044 7.8H20.956C21.276 8.616 22.068 9.2 23 9.2Z" fill="#FEBD00"/>
<path d="M21.6 5L21.9527 5.51459L22.5511 5.69098L22.1706 6.18541L22.1878 6.80902L21.6 6.6L21.0122 6.80902L21.0294 6.18541L20.6489 5.69098L21.2473 5.51459L21.6 5Z" fill="#FEBD00"/>
<path d="M24.4 5L24.7527 5.51459L25.3511 5.69098L24.9706 6.18541L24.9878 6.80902L24.4 6.6L23.8122 6.80902L23.8294 6.18541L23.4489 5.69098L24.0473 5.51459L24.4 5Z" fill="#FEBD00"/>
</svg>
